<svg width="173" height="27" viewBox="0 0 173 27" fill="none" xmlns="http://www.w3.org/2000/svg">
<path d="M18.3957 1.08917L12.0426 19.0002H6.58255L0.229492 1.08917H4.87309L9.31257 14.6117L13.7776 1.08917H18.3957Z" fill="#C23735"/>
<path d="M24.5821 1.08917V19.0002H20.2191V1.08917H24.5821Z" fill="#C23735"/>
<path d="M41.394 6.8554C41.394 7.89298 41.1558 8.84551 40.6796 9.71299C40.2033 10.5635 39.4719 11.2524 38.4853 11.7796C37.4988 12.3069 36.2741 12.5706 34.8113 12.5706H32.1068V19.0002H27.7438V1.08917H34.8113C36.2401 1.08917 37.4478 1.33581 38.4343 1.82908C39.4209 2.32236 40.1608 3.00274 40.6541 3.87023C41.1473 4.73771 41.394 5.73277 41.394 6.8554ZM34.4796 9.10065C35.3131 9.10065 35.9339 8.90504 36.3421 8.51382C36.7504 8.1226 36.9545 7.5698 36.9545 6.8554C36.9545 6.141 36.7504 5.58819 36.3421 5.19697C35.9339 4.80575 35.3131 4.61014 34.4796 4.61014H32.1068V9.10065H34.4796Z" fill="#C23735"/>
<path d="M42.7979 11.8562C42.7979 10.3934 43.07 9.10916 43.6143 8.00354C44.1756 6.89792 44.9326 6.04744 45.8851 5.45211C46.8376 4.85678 47.9007 4.55911 49.0744 4.55911C50.0779 4.55911 50.9539 4.76323 51.7023 5.17145C52.4678 5.57968 53.0546 6.11548 53.4628 6.77885V4.76323H57.8258V19.0002H53.4628V16.9846C53.0376 17.6479 52.4422 18.1837 51.6768 18.592C50.9284 19.0002 50.0524 19.2043 49.0489 19.2043C47.8922 19.2043 46.8376 18.9066 45.8851 18.3113C44.9326 17.699 44.1756 16.84 43.6143 15.7344C43.07 14.6117 42.7979 13.319 42.7979 11.8562ZM53.4628 11.8817C53.4628 10.7931 53.1567 9.93412 52.5443 9.30477C51.949 8.67541 51.2176 8.36074 50.3501 8.36074C49.4826 8.36074 48.7427 8.67541 48.1303 9.30477C47.535 9.91711 47.2373 10.7676 47.2373 11.8562C47.2373 12.9448 47.535 13.8123 48.1303 14.4586C48.7427 15.088 49.4826 15.4027 50.3501 15.4027C51.2176 15.4027 51.949 15.088 52.5443 14.4586C53.1567 13.8293 53.4628 12.9703 53.4628 11.8817Z" fill="#353535"/>
<path d="M75.0405 4.76323V19.0002H70.6776V17.0611C70.2353 17.6905 69.6315 18.2007 68.8661 18.592C68.1176 18.9662 67.2842 19.1533 66.3657 19.1533C65.2771 19.1533 64.316 18.9151 63.4826 18.4389C62.6491 17.9456 62.0027 17.2397 61.5435 16.3212C61.0842 15.4027 60.8546 14.3226 60.8546 13.0809V4.76323H65.192V12.494C65.192 13.4466 65.4386 14.1865 65.9319 14.7138C66.4252 15.2411 67.0886 15.5047 67.922 15.5047C68.7725 15.5047 69.4444 15.2411 69.9377 14.7138C70.4309 14.1865 70.6776 13.4466 70.6776 12.494V4.76323H75.0405Z" fill="#353535"/>
<path d="M86.1093 15.3006V19.0002H83.8896C82.3077 19.0002 81.0745 18.6175 80.19 17.852C79.3055 17.0696 78.8633 15.8024 78.8633 14.0504V8.38625H77.1283V4.76323H78.8633V1.29329H83.2262V4.76323H86.0838V8.38625H83.2262V14.1014C83.2262 14.5267 83.3283 14.8329 83.5324 15.02C83.7365 15.2071 84.0767 15.3006 84.553 15.3006H86.1093Z" fill="#353535"/>
<path d="M95.0202 19.2043C93.6254 19.2043 92.3667 18.9066 91.2441 18.3113C90.1385 17.716 89.2625 16.8655 88.6161 15.7599C87.9868 14.6543 87.6721 13.3615 87.6721 11.8817C87.6721 10.4189 87.9953 9.13467 88.6416 8.02905C89.288 6.90642 90.1725 6.04744 91.2951 5.45211C92.4177 4.85678 93.6764 4.55911 95.0712 4.55911C96.466 4.55911 97.7247 4.85678 98.8473 5.45211C99.9699 6.04744 100.854 6.90642 101.501 8.02905C102.147 9.13467 102.47 10.4189 102.47 11.8817C102.47 13.3445 102.139 14.6372 101.475 15.7599C100.829 16.8655 99.9359 17.716 98.7963 18.3113C97.6737 18.9066 96.415 19.2043 95.0202 19.2043ZM95.0202 15.4282C95.8536 15.4282 96.5595 15.122 97.1379 14.5097C97.7332 13.8973 98.0309 13.0213 98.0309 11.8817C98.0309 10.7421 97.7417 9.86608 97.1634 9.25374C96.6021 8.64139 95.9047 8.33522 95.0712 8.33522C94.2207 8.33522 93.5148 8.64139 92.9535 9.25374C92.3922 9.84907 92.1116 10.7251 92.1116 11.8817C92.1116 13.0213 92.3837 13.8973 92.928 14.5097C93.4893 15.122 94.1867 15.4282 95.0202 15.4282Z" fill="#353535"/>
<path d="M110.194 4.55911C111.198 4.55911 112.074 4.76323 112.822 5.17145C113.587 5.57968 114.174 6.11548 114.582 6.77885V4.76323H118.945V18.9747C118.945 20.2844 118.682 21.4666 118.154 22.5212C117.644 23.5928 116.853 24.4432 115.782 25.0726C114.727 25.7019 113.409 26.0166 111.827 26.0166C109.718 26.0166 108.008 25.5148 106.699 24.5113C105.389 23.5247 104.64 22.181 104.453 20.48H108.765C108.901 21.0243 109.224 21.4496 109.735 21.7557C110.245 22.0789 110.874 22.2405 111.623 22.2405C112.524 22.2405 113.239 21.9769 113.766 21.4496C114.31 20.9393 114.582 20.1143 114.582 18.9747V16.959C114.157 17.6224 113.57 18.1667 112.822 18.592C112.074 19.0002 111.198 19.2043 110.194 19.2043C109.02 19.2043 107.957 18.9066 107.005 18.3113C106.052 17.699 105.295 16.84 104.734 15.7344C104.19 14.6117 103.917 13.319 103.917 11.8562C103.917 10.3934 104.19 9.10916 104.734 8.00354C105.295 6.89792 106.052 6.04744 107.005 5.45211C107.957 4.85678 109.02 4.55911 110.194 4.55911ZM114.582 11.8817C114.582 10.7931 114.276 9.93412 113.664 9.30477C113.069 8.67541 112.337 8.36074 111.47 8.36074C110.602 8.36074 109.862 8.67541 109.25 9.30477C108.655 9.91711 108.357 10.7676 108.357 11.8562C108.357 12.9448 108.655 13.8123 109.25 14.4586C109.862 15.088 110.602 15.4027 111.47 15.4027C112.337 15.4027 113.069 15.088 113.664 14.4586C114.276 13.8293 114.582 12.9703 114.582 11.8817Z" fill="#353535"/>
<path d="M126.465 0.119629V19.0002H122.102V0.119629H126.465Z" fill="#353535"/>
<path d="M128.759 11.8562C128.759 10.3934 129.031 9.10916 129.575 8.00354C130.137 6.89792 130.894 6.04744 131.846 5.45211C132.799 4.85678 133.862 4.55911 135.036 4.55911C136.039 4.55911 136.915 4.76323 137.663 5.17145C138.429 5.57968 139.016 6.11548 139.424 6.77885V4.76323H143.787V19.0002H139.424V16.9846C138.999 17.6479 138.403 18.1837 137.638 18.592C136.89 19.0002 136.014 19.2043 135.01 19.2043C133.853 19.2043 132.799 18.9066 131.846 18.3113C130.894 17.699 130.137 16.84 129.575 15.7344C129.031 14.6117 128.759 13.319 128.759 11.8562ZM139.424 11.8817C139.424 10.7931 139.118 9.93412 138.505 9.30477C137.91 8.67541 137.179 8.36074 136.311 8.36074C135.444 8.36074 134.704 8.67541 134.092 9.30477C133.496 9.91711 133.199 10.7676 133.199 11.8562C133.199 12.9448 133.496 13.8123 134.092 14.4586C134.704 15.088 135.444 15.4027 136.311 15.4027C137.179 15.4027 137.91 15.088 138.505 14.4586C139.118 13.8293 139.424 12.9703 139.424 11.8817Z" fill="#353535"/>
<path d="M152.735 19.2043C151.493 19.2043 150.388 18.9917 149.418 18.5664C148.449 18.1412 147.683 17.5629 147.122 16.8315C146.561 16.0831 146.246 15.2496 146.178 14.3311H150.49C150.541 14.8244 150.77 15.2241 151.179 15.5302C151.587 15.8364 152.089 15.9895 152.684 15.9895C153.228 15.9895 153.645 15.8874 153.934 15.6833C154.24 15.4622 154.393 15.1816 154.393 14.8414C154.393 14.4331 154.181 14.1355 153.756 13.9484C153.33 13.7442 152.642 13.5231 151.689 13.285C150.668 13.0469 149.818 12.8002 149.138 12.5451C148.457 12.2729 147.87 11.8562 147.377 11.2949C146.884 10.7166 146.637 9.94262 146.637 8.97308C146.637 8.15662 146.858 7.41671 147.301 6.75334C147.76 6.07296 148.423 5.53716 149.291 5.14594C150.175 4.75472 151.221 4.55911 152.429 4.55911C154.215 4.55911 155.618 5.00136 156.639 5.88585C157.676 6.77035 158.272 7.944 158.425 9.40682H154.393C154.325 8.91355 154.104 8.52233 153.73 8.23317C153.373 7.944 152.897 7.79942 152.301 7.79942C151.791 7.79942 151.4 7.90148 151.128 8.1056C150.855 8.2927 150.719 8.55635 150.719 8.89654C150.719 9.30477 150.932 9.61094 151.357 9.81505C151.8 10.0192 152.48 10.2233 153.398 10.4274C154.453 10.6995 155.312 10.9717 155.975 11.2438C156.639 11.499 157.217 11.9242 157.71 12.5196C158.221 13.0979 158.484 13.8803 158.501 14.8669C158.501 15.7003 158.263 16.4488 157.787 17.1121C157.328 17.7585 156.656 18.2688 155.771 18.643C154.904 19.0172 153.892 19.2043 152.735 19.2043Z" fill="#353535"/>
<path d="M166.962 19.2043C165.721 19.2043 164.615 18.9917 163.645 18.5664C162.676 18.1412 161.91 17.5629 161.349 16.8315C160.788 16.0831 160.473 15.2496 160.405 14.3311H164.717C164.768 14.8244 164.998 15.2241 165.406 15.5302C165.814 15.8364 166.316 15.9895 166.911 15.9895C167.456 15.9895 167.872 15.8874 168.161 15.6833C168.468 15.4622 168.621 15.1816 168.621 14.8414C168.621 14.4331 168.408 14.1355 167.983 13.9484C167.558 13.7442 166.869 13.5231 165.916 13.285C164.896 13.0469 164.045 12.8002 163.365 12.5451C162.684 12.2729 162.098 11.8562 161.604 11.2949C161.111 10.7166 160.864 9.94262 160.864 8.97308C160.864 8.15662 161.085 7.41671 161.528 6.75334C161.987 6.07296 162.65 5.53716 163.518 5.14594C164.402 4.75472 165.448 4.55911 166.656 4.55911C168.442 4.55911 169.845 5.00136 170.866 5.88585C171.904 6.77035 172.499 7.944 172.652 9.40682H168.621C168.553 8.91355 168.332 8.52233 167.957 8.23317C167.6 7.944 167.124 7.79942 166.529 7.79942C166.018 7.79942 165.627 7.90148 165.355 8.1056C165.083 8.2927 164.947 8.55635 164.947 8.89654C164.947 9.30477 165.159 9.61094 165.584 9.81505C166.027 10.0192 166.707 10.2233 167.626 10.4274C168.68 10.6995 169.539 10.9717 170.203 11.2438C170.866 11.499 171.444 11.9242 171.938 12.5196C172.448 13.0979 172.711 13.8803 172.728 14.8669C172.728 15.7003 172.49 16.4488 172.014 17.1121C171.555 17.7585 170.883 18.2688 169.998 18.643C169.131 19.0172 168.119 19.2043 166.962 19.2043Z" fill="#353535"/>
</svg>
