<svg width="21" height="13" viewBox="0 0 21 13" fill="none" xmlns="http://www.w3.org/2000/svg">
<path d="M18.6926 9.10932C18.6926 9.10932 20.3913 10.9247 20.8095 11.7674C20.8215 11.7847 20.8275 11.802 20.8315 11.8107C21.0016 12.1205 21.0416 12.3609 20.9575 12.5407C20.8175 12.8397 20.3373 12.987 20.1732 13H17.172C16.9639 13 16.5277 12.9415 15.9995 12.5472C15.5933 12.2396 15.1931 11.7349 14.803 11.2431C14.2207 10.5109 13.7165 9.87835 13.2083 9.87835C13.1438 9.87823 13.0796 9.8892 13.0182 9.91085C12.6341 10.0452 12.1419 10.6387 12.1419 12.2201C12.1419 12.714 11.7817 12.9978 11.5276 12.9978H10.153C9.68484 12.9978 7.24583 12.8202 5.08493 10.3528C2.43983 7.33078 0.0588369 1.26945 0.0388286 1.21313C-0.111234 0.821029 0.198896 0.610898 0.537036 0.610898H3.5683C3.97247 0.610898 4.10452 0.877354 4.19656 1.11348C4.3046 1.3886 4.70077 2.48259 5.35104 3.71305C6.40548 5.71905 7.05175 6.53358 7.56996 6.53358C7.66713 6.53234 7.76257 6.50558 7.84808 6.45559C8.52436 6.04832 8.39831 3.43793 8.36829 2.89635C8.36829 2.79453 8.36629 1.72871 8.02015 1.21746C7.77205 0.847024 7.34987 0.706215 7.09376 0.654224C7.19742 0.499357 7.33399 0.373783 7.49193 0.288117C7.95612 0.0368259 8.79247 0 9.62282 0H10.085C10.9854 0.0129978 11.2175 0.0758211 11.5436 0.16464C12.2039 0.335778 12.2179 0.797201 12.1599 2.37644C12.1419 2.82486 12.1239 3.33178 12.1239 3.92968C12.1239 4.05966 12.1179 4.1983 12.1179 4.34561C12.0978 5.14931 12.0738 6.06132 12.5981 6.43609C12.6664 6.48251 12.7454 6.50728 12.8262 6.50758C13.0082 6.50758 13.5565 6.50758 15.0411 3.74988C15.4989 2.86225 15.8968 1.93987 16.2316 0.99C16.2616 0.933676 16.3496 0.760373 16.4537 0.693217C16.5304 0.650835 16.6156 0.629276 16.7018 0.630394H20.2652C20.6534 0.630394 20.9195 0.693217 20.9695 0.85569C21.0576 1.11348 20.9535 1.89985 19.3269 4.28495L18.6006 5.32261C17.1259 7.41526 17.1259 7.52141 18.6926 9.10932Z" fill="#C23735"/>
</svg>
